HIERARCHY
ROOT SpineBase
{
  OFFSET 0.000000 0.000000 0.000000
  CHANNELS 6 Xposition Yposition Zposition Zrotation Xrotation Yrotation
  JOINT SpineMid
  {
    OFFSET 0.000000 32.117063 0.000000
    CHANNELS 3 Zrotation Xrotation Yrotation
    JOINT SpineShoulder
    {
      OFFSET -0.007869 23.870452 -0.800245
      CHANNELS 3 Zrotation Xrotation Yrotation
      JOINT Neck
      {
        OFFSET 0.012991 7.905128 -0.598323
        CHANNELS 3 Zrotation Xrotation Yrotation
        JOINT Head
        {
          OFFSET 3.651502 12.628596 6.323237
          CHANNELS 3 Zrotation Xrotation Yrotation
          End Site
          {
            OFFSET 0 0 0
          }
        }
      }
      JOINT ShoulderLeft
      {
        OFFSET -10.365633 -2.339673 -11.292866
        CHANNELS 3 Zrotation Xrotation Yrotation
        JOINT ElbowLeft
        {
          OFFSET -6.468001 -23.115541 -6.707355
          CHANNELS 3 Zrotation Xrotation Yrotation
          JOINT WristLeft
          {
            OFFSET 13.325042 -12.635340 -7.399614
            CHANNELS 3 Zrotation Xrotation Yrotation
            JOINT HandLeft
            {
              OFFSET 5.561379 0.125980 -3.315673
              CHANNELS 3 Zrotation Xrotation Yrotation
              JOINT HandTipLeft
              {
                OFFSET 7.139552 -0.529972 -3.136051
                CHANNELS 3 Zrotation Xrotation Yrotation
                End Site
                {
                  OFFSET 0 0 0
                }
              }
              JOINT ThumbLeft
              {
                OFFSET 3.289826 2.102729 0.113596
                CHANNELS 3 Zrotation Xrotation Yrotation
                End Site
                {
                  OFFSET 0 0 0
                }
              }
            }
          }
        }
      }
      JOINT ShoulderRight
      {
        OFFSET 12.766566 -3.350849 10.574767
        CHANNELS 3 Zrotation Xrotation Yrotation
        JOINT ElbowRight
        {
          OFFSET 1.929680 -25.031712 3.645783
          CHANNELS 3 Zrotation Xrotation Yrotation
          JOINT WristRight
          {
            OFFSET 5.006473 -11.012705 -25.155008
            CHANNELS 3 Zrotation Xrotation Yrotation
            JOINT HandRight
            {
              OFFSET 3.086457 -0.202655 -1.419810
              CHANNELS 3 Zrotation Xrotation Yrotation
              JOINT HandTipRight
              {
                OFFSET -2.268288 -2.629665 -5.757131
                CHANNELS 3 Zrotation Xrotation Yrotation
                End Site
                {
                  OFFSET 0 0 0
                }
              }
              JOINT ThumbRight
              {
                OFFSET -6.079445 -0.184603 -6.710205
                CHANNELS 3 Zrotation Xrotation Yrotation
                End Site
                {
                  OFFSET 0 0 0
                }
              }
            }
          }
        }
      }
    }
  }
  JOINT HipLeft
  {
    OFFSET -4.651508 1.783925 -7.814764
    CHANNELS 3 Zrotation Xrotation Yrotation
    JOINT KneeLeft
    {
      OFFSET -8.281197 -36.939450 -8.651819
      CHANNELS 3 Zrotation Xrotation Yrotation
      JOINT AnkleLeft
      {
        OFFSET -5.771819 -36.559808 -1.746303
        CHANNELS 3 Zrotation Xrotation Yrotation
        JOINT FootLeft
        {
          OFFSET -0.213404 -6.641967 -8.480976
          CHANNELS 3 Zrotation Xrotation Yrotation
          End Site
          {
            OFFSET 0 0 0
          }
        }
      }
    }
  }
  JOINT HipRight
  {
    OFFSET 5.285576 0.084988 0.641586
    CHANNELS 3 Zrotation Xrotation Yrotation
    JOINT KneeRight
    {
      OFFSET -0.404734 -38.707653 2.297499
      CHANNELS 3 Zrotation Xrotation Yrotation
      JOINT AnkleRight
      {
        OFFSET -3.498193 -34.331014 10.700629
        CHANNELS 3 Zrotation Xrotation Yrotation
        JOINT FootRight
        {
          OFFSET 1.990014 -8.195130 -4.650972
          CHANNELS 3 Zrotation Xrotation Yrotation
          End Site
          {
            OFFSET 0 0 0
          }
        }
      }
    }
  }
}
MOTION
Frames: 14
Frame Time: 0.033333
-37.782339 82.329184 340.364027 4.995003 0.474241 -47.278619 -0.364175 -0.338902 47.404256 -0.300465 -0.148526 0.170480 -9.680091 -15.021567 6.238170 0.000000 0.000000 0.000000 10.777853 5.096142 -7.009648 3.469325 -9.971776 -5.617661 -15.537285 2.625482 -24.633310 -4.090477 -8.434522 14.276657 0.000000 0.000000 0.000000 0.000000 0.000000 0.000000 6.457838 24.133157 0.904005 -4.429665 -18.429669 -14.203833 -25.073000 -28.317644 46.001388 33.676015 -1.410874 -54.034202 0.000000 0.000000 0.000000 0.000000 0.000000 0.000000 5.930037 -5.807498 48.591434 -3.642280 -1.592500 1.046219 3.203697 -2.283860 -7.600523 0.000000 0.000000 0.000000 1.292430 -2.303886 47.659299 -0.876373 1.579804 0.776785 12.947137 -0.381053 -10.199802 0.000000 0.000000 0.000000
-37.787849 82.317905 340.344359 4.975252 0.446839 -47.125710 -0.347470 -0.346042 47.253119 -0.294498 -0.148041 0.170552 -9.693358 -14.917314 6.236490 0.000000 0.000000 0.000000 10.952834 5.027103 -7.034014 3.417138 -9.789402 -5.601679 -13.006108 3.844802 -22.604310 -5.471008 -9.443705 13.934009 0.000000 0.000000 0.000000 0.000000 0.000000 0.000000 6.543160 23.393129 0.905603 -3.014626 -19.361333 -17.459447 -22.344519 -26.058349 52.917574 33.240854 -2.268432 -61.261546 0.000000 0.000000 0.000000 0.000000 0.000000 0.000000 5.948058 -5.740889 48.418752 -3.696168 -1.639184 1.072879 3.164453 -1.931155 -7.547217 0.000000 0.000000 0.000000 1.332190 -2.311909 47.511161 -0.915972 1.629536 0.767364 12.882882 -0.526968 -10.168026 0.000000 0.000000 0.000000
-37.779785 82.307872 340.341871 4.975526 0.415929 -47.030857 -0.343947 -0.346739 47.159982 -0.287061 -0.148793 0.171427 -9.698554 -14.813101 6.219775 0.000000 0.000000 0.000000 11.066838 4.984407 -7.056251 3.696983 -9.369605 -5.484801 -10.938096 4.786253 -20.718683 -6.825509 -10.330621 13.517023 0.000000 0.000000 0.000000 0.000000 0.000000 0.000000 6.500407 22.778454 0.912078 -1.956015 -20.547274 -20.200055 -19.872377 -19.335506 44.061953 31.968293 0.468043 -60.626541 0.000000 0.000000 0.000000 0.000000 0.000000 0.000000 5.929376 -5.694001 48.308213 -3.718965 -1.692217 1.092100 3.187434 -1.338354 -7.582532 0.000000 0.000000 0.000000 1.318126 -2.312592 47.417097 -0.939702 1.604566 0.764772 12.572944 -1.160702 -10.098623 0.000000 0.000000 0.000000
-37.772985 82.300284 340.338041 4.979308 0.395436 -46.996689 -0.344034 -0.338039 47.126910 -0.281093 -0.146973 0.172342 -9.730845 -14.815184 6.230720 0.000000 0.000000 0.000000 11.066030 5.024355 -7.076979 4.009133 -9.076206 -5.346093 -9.243934 5.574647 -19.483035 -8.511151 -11.650419 13.059866 0.000000 0.000000 0.000000 0.000000 0.000000 0.000000 6.097449 22.417628 0.935189 -1.576865 -20.234200 -20.042096 -17.855295 -16.348239 42.851232 31.659461 -2.527114 -67.787433 0.000000 0.000000 0.000000 0.000000 0.000000 0.000000 5.923226 -5.657996 48.262537 -3.761662 -1.752431 1.113316 3.247672 -0.926937 -7.651760 0.000000 0.000000 0.000000 1.308271 -2.299372 47.383553 -0.986881 1.564044 0.759218 12.288213 -1.895865 -10.052795 0.000000 0.000000 0.000000
-37.762590 82.301770 340.339048 4.988983 0.371023 -47.026423 -0.344280 -0.332570 47.158068 -0.274117 -0.143231 0.173434 -9.730053 -14.748886 6.209411 0.000000 0.000000 0.000000 10.892082 5.186214 -7.085152 4.198446 -8.883946 -5.084675 -7.828939 6.111664 -18.773675 -9.478494 -12.198384 14.310626 0.000000 0.000000 0.000000 0.000000 0.000000 0.000000 5.467863 22.307880 0.963954 -2.114312 -17.887903 -16.523736 -14.302714 -13.080845 31.653211 30.294767 -6.973596 -72.653197 0.000000 0.000000 0.000000 0.000000 0.000000 0.000000 5.899322 -5.635263 48.286788 -3.789519 -1.837269 1.131995 3.372271 -0.338688 -7.802667 0.000000 0.000000 0.000000 1.265021 -2.263009 47.410936 -1.041210 1.480948 0.752814 12.169169 -2.483904 -10.068424 0.000000 0.000000 0.000000
-37.764716 82.304955 340.325527 4.984930 0.356438 -47.083340 -0.327231 -0.329377 47.216550 -0.263469 -0.135335 0.174516 -9.766729 -14.629443 6.186943 0.000000 0.000000 0.000000 10.574364 5.315372 -7.027167 4.481480 -8.788293 -4.974697 -7.422315 6.128672 -19.114217 -9.594418 -12.135003 17.668628 0.000000 0.000000 0.000000 0.000000 0.000000 0.000000 4.429191 23.148928 1.014382 -3.328540 -14.916064 -10.568847 -12.428509 -14.182469 22.208970 31.758216 -9.435685 -78.345810 0.000000 0.000000 0.000000 0.000000 0.000000 0.000000 5.921750 -5.633939 48.351888 -3.800076 -1.868096 1.137953 3.436775 0.266647 -7.877221 0.000000 0.000000 0.000000 1.271147 -2.215049 47.468763 -1.130213 1.422347 0.741759 12.138644 -2.973709 -10.106775 0.000000 0.000000 0.000000
-37.762803 82.302953 340.319080 4.987911 0.338770 -47.183370 -0.314996 -0.326700 47.318198 -0.254136 -0.116987 0.175222 -9.815907 -14.476728 6.154186 0.000000 0.000000 0.000000 10.173137 5.397763 -6.922355 4.252051 -9.047411 -4.979199 -6.708208 6.313744 -20.871781 -9.241095 -11.953407 22.156894 0.000000 0.000000 0.000000 0.000000 0.000000 0.000000 3.708697 23.027482 1.052309 -6.479583 -11.194292 -2.727488 -12.503648 -16.867924 18.316526 31.637416 -14.573512 -84.518516 0.000000 0.000000 0.000000 0.000000 0.000000 0.000000 5.950144 -5.636075 48.463210 -3.817014 -1.883789 1.142102 3.518398 0.846069 -7.971198 0.000000 0.000000 0.000000 1.267818 -2.159443 47.569318 -1.215839 1.375976 0.730160 12.226723 -3.065386 -10.138962 0.000000 0.000000 0.000000
-37.740411 82.292619 340.335021 5.018776 0.298508 -47.303325 -0.329538 -0.326079 47.440100 -0.248527 -0.101346 0.176098 -9.860850 -14.275475 6.107196 0.000000 0.000000 0.000000 9.699310 5.419360 -6.767637 3.655893 -9.371924 -4.980654 -6.576748 6.233999 -22.387232 -9.066352 -11.855659 29.515867 0.000000 0.000000 0.000000 0.000000 0.000000 0.000000 2.966612 23.545524 1.098489 -9.586820 -9.362514 4.143630 -12.781764 -18.570605 12.973910 32.229430 -16.316173 -87.878133 0.000000 0.000000 0.000000 0.000000 0.000000 0.000000 5.881876 -5.637122 48.587122 -3.804393 -1.931160 1.142266 3.542397 1.172554 -7.972910 0.000000 0.000000 0.000000 1.202055 -2.098861 47.686990 -1.293083 1.310220 0.717876 12.748510 -3.101139 -10.381898 0.000000 0.000000 0.000000
-37.718344 82.278005 340.340652 5.051286 0.278886 -47.431153 -0.341797 -0.325169 47.569095 -0.243898 -0.084428 0.176908 -9.926067 -14.084073 6.060847 0.000000 0.000000 0.000000 9.317991 5.349478 -6.616157 4.495982 -10.284854 -6.102733 -10.858590 5.085485 -24.010529 -5.529517 -8.915083 28.582077 0.000000 0.000000 0.000000 0.000000 0.000000 0.000000 2.453592 22.976073 1.116120 -12.981123 -7.133041 10.968825 -16.607442 -21.689294 14.294661 32.471188 -19.917351 -93.881110 0.000000 0.000000 0.000000 0.000000 0.000000 0.000000 5.853016 -5.663135 48.727133 -3.799760 -1.937298 1.137134 3.474933 1.169499 -7.848664 0.000000 0.000000 0.000000 1.170806 -2.084534 47.814955 -1.371392 1.311706 0.698088 13.635928 -2.653465 -10.716454 0.000000 0.000000 0.000000
-37.706194 82.261967 340.335410 5.072987 0.277883 -47.584583 -0.340644 -0.330359 47.723261 -0.241898 -0.068858 0.177270 -9.979744 -13.895941 6.013819 0.000000 0.000000 0.000000 8.772760 5.224492 -6.381849 5.480725 -11.436908 -7.531647 -14.865812 4.358084 -24.446119 -2.649923 -5.994858 28.892057 0.000000 0.000000 0.000000 0.000000 0.000000 0.000000 2.121295 21.957739 1.110301 -13.731757 -5.343470 13.280912 -23.581014 -27.128307 26.726648 34.399910 -23.748540 -104.437627 0.000000 0.000000 0.000000 0.000000 0.000000 0.000000 5.881917 -5.689014 48.895685 -3.808566 -1.924820 1.134412 3.308804 1.101026 -7.593360 0.000000 0.000000 0.000000 1.185951 -2.074689 47.971132 -1.422082 1.345363 0.687839 13.882418 -2.364451 -10.772110 0.000000 0.000000 0.000000
-37.702140 82.245050 340.317926 5.085362 0.288953 -47.725723 -0.328264 -0.333133 47.864941 -0.236001 -0.049100 0.177745 -10.078927 -13.688366 5.973044 0.000000 0.000000 0.000000 8.083766 4.972043 -6.053269 6.711084 -12.437810 -9.081013 -18.477839 3.723814 -23.695527 -0.479931 -3.806127 25.617098 0.000000 0.000000 0.000000 0.000000 0.000000 0.000000 1.978315 20.818789 1.088907 -12.112103 -4.450984 11.249356 -25.268722 -33.336743 50.530107 38.349098 -24.083500 -110.684839 0.000000 0.000000 0.000000 0.000000 0.000000 0.000000 5.951711 -5.715501 49.054079 -3.818073 -1.864004 1.126919 3.061317 0.912798 -7.237380 0.000000 0.000000 0.000000 1.233806 -2.081665 48.116908 -1.483884 1.384745 0.676313 14.199260 -2.074853 -10.865902 0.000000 0.000000 0.000000
-37.708356 82.226985 340.287392 5.084060 0.324978 -47.867778 -0.309655 -0.327875 48.006290 -0.226699 -0.025572 0.178078 -10.219930 -13.534186 5.950843 0.000000 0.000000 0.000000 7.384276 4.540572 -5.664255 7.961260 -13.246215 -10.675694 -20.617187 3.646484 -21.154162 0.129515 -3.064565 24.204138 0.000000 0.000000 0.000000 0.000000 0.000000 0.000000 2.266974 19.222346 1.047216 -9.940209 -3.478883 7.472491 -23.527211 -34.852452 61.804847 40.613422 -22.005131 -108.776727 0.000000 0.000000 0.000000 0.000000 0.000000 0.000000 6.103488 -5.744108 49.217960 -3.907992 -1.766341 1.128146 2.918775 0.700611 -6.982272 0.000000 0.000000 0.000000 1.337174 -2.114388 48.266667 -1.552822 1.434348 0.665986 14.016267 -1.493224 -10.663563 0.000000 0.000000 0.000000
-37.709171 82.208944 340.276957 5.079429 0.352435 -48.006642 -0.296225 -0.317862 48.144460 -0.218128 -0.007314 0.178427 -10.323626 -13.389928 5.922259 0.000000 0.000000 0.000000 6.730329 4.063991 -5.277677 9.594194 -13.307660 -11.850320 -21.076551 3.942069 -15.967619 -1.412725 -4.587705 18.853858 0.000000 0.000000 0.000000 0.000000 0.000000 0.000000 3.169897 16.743723 0.999937 -6.254058 -2.935908 -0.362721 -17.184445 -28.106562 66.865588 33.685407 -13.759770 -98.212515 0.000000 0.000000 0.000000 0.000000 0.000000 0.000000 6.207528 -5.774532 49.377765 -3.977394 -1.652503 1.118108 2.957000 0.404594 -6.974792 0.000000 0.000000 0.000000 1.395854 -2.114326 48.408974 -1.600770 1.430898 0.661354 13.541150 -1.155421 -10.354208 0.000000 0.000000 0.000000
-37.714946 82.201677 340.272871 5.062020 0.378908 -48.053791 -0.280693 -0.300243 48.190745 -0.211862 0.007314 0.178488 -10.440207 -13.299443 5.918155 0.000000 0.000000 0.000000 5.905786 3.731490 -4.888246 11.255381 -12.707421 -12.312770 -20.788222 4.123195 -11.176614 -3.198778 -5.841654 13.926040 0.000000 0.000000 0.000000 0.000000 0.000000 0.000000 3.980761 14.723465 0.995564 -2.951890 -3.334244 -8.094933 -12.607920 -19.326963 69.597197 23.204946 -11.088597 -93.465019 0.000000 0.000000 0.000000 0.000000 0.000000 0.000000 6.282562 -5.789997 49.436096 -4.040792 -1.520973 1.104211 3.107451 0.097246 -7.126380 0.000000 0.000000 0.000000 1.458470 -2.113492 48.459340 -1.638550 1.437542 0.657398 13.015335 -0.912039 -10.030562 0.000000 0.000000 0.000000
